<svg width="25" height="25" viewBox="0 0 25 25" fill="none" xmlns="http://www.w3.org/2000/svg">
<path d="M12.4799 24.9956C10.6299 24.9956 8.77991 24.9956 6.92991 24.9956C3.82991 24.9856 1.25991 22.8956 0.629908 19.8556C0.539908 19.4156 0.499908 18.9656 0.499908 18.5156C0.499908 14.8256 0.499908 11.1356 0.499908 7.44557C0.499908 4.18557 2.74991 1.54557 5.95991 1.02557C6.29991 0.975566 6.63991 0.955566 6.97991 0.955566C10.1999 0.955566 13.4099 0.955566 16.6299 0.955566C17.5499 0.955566 18.3399 1.25557 19.0099 1.88557C20.4699 3.25557 21.9299 4.62557 23.3999 5.98557C24.1499 6.67557 24.5099 7.52557 24.4999 8.54557C24.4999 11.8856 24.4999 15.2256 24.4999 18.5656C24.4999 21.6656 22.3799 24.2556 19.3599 24.8756C18.9099 24.9656 18.4499 24.9956 17.9999 24.9956C16.1699 25.0056 14.3299 24.9956 12.4999 24.9956H12.4799ZM16.4899 2.55557C16.3999 2.55557 16.3299 2.55557 16.2699 2.55557C13.1399 2.55557 10.0099 2.55557 6.86991 2.55557C4.21991 2.55557 2.09991 4.69557 2.09991 7.36557C2.09991 11.1056 2.09991 14.8456 2.09991 18.5856C2.09991 21.2556 4.22991 23.3856 6.89991 23.3956C10.6299 23.3956 14.3599 23.3956 18.0999 23.3956C20.7699 23.3956 22.8899 21.2656 22.8999 18.5856C22.8999 15.2156 22.8999 11.8456 22.8999 8.46557C22.8999 8.36557 22.8999 8.27557 22.8799 8.16557C22.1699 8.16557 21.4999 8.11557 20.8299 8.16557C17.7799 8.41557 16.2399 6.83557 16.4999 3.83557C16.5399 3.42557 16.4999 3.00557 16.4999 2.54557L16.4899 2.55557ZM21.6499 6.55557C20.4499 5.43557 19.2899 4.34557 18.0899 3.22557C18.0899 3.80557 18.0899 4.31557 18.0899 4.83557C18.0899 4.94557 18.0899 5.05557 18.0999 5.15557C18.1999 5.89557 18.7799 6.50557 19.5199 6.54557C20.2099 6.58557 20.8999 6.54557 21.6499 6.54557V6.55557Z" fill="#B3B9C4"/>
<path d="M13.2999 12.1756C13.8099 12.1756 14.2899 12.1756 14.7699 12.1756C15.2099 12.1756 15.6499 12.1756 16.0899 12.1756C16.5399 12.1756 16.8899 12.5256 16.8899 12.9656C16.8899 13.4156 16.5499 13.7756 16.0799 13.7756C15.2499 13.7756 14.4099 13.7756 13.5799 13.7756C13.4899 13.7756 13.3999 13.7756 13.2899 13.7756C13.2899 14.0156 13.2899 14.2256 13.2899 14.4456C13.2899 15.1356 13.2899 15.8256 13.2899 16.5256C13.2899 17.0256 12.9499 17.3956 12.4799 17.3856C12.0299 17.3856 11.6899 17.0256 11.6899 16.5356C11.6899 15.7156 11.6899 14.8956 11.6899 14.0856C11.6899 13.9956 11.6899 13.9056 11.6899 13.7856C11.5799 13.7856 11.4899 13.7856 11.3999 13.7856C10.5799 13.7856 9.76991 13.7856 8.94991 13.7856C8.43991 13.7856 8.07991 13.4456 8.08991 12.9856C8.08991 12.5156 8.44991 12.1856 8.95991 12.1856C9.83991 12.1856 10.7299 12.1856 11.6099 12.1856C11.6299 12.1856 11.6399 12.1856 11.6899 12.1656C11.6899 12.0856 11.6899 11.9956 11.6899 11.9056C11.6899 11.0956 11.6899 10.2856 11.6899 9.47556C11.6899 8.94556 12.0099 8.57556 12.4799 8.57556C12.9499 8.57556 13.2799 8.93556 13.2799 9.46556C13.2799 10.3556 13.2799 11.2456 13.2799 12.1856L13.2999 12.1756Z" fill="#B3B9C4"/>
</svg>
