<svg width="16" height="16" viewBox="0 0 16 16" fill="none" xmlns="http://www.w3.org/2000/svg">
<path d="M4.66997 2.66666C4.66997 1.92666 4.07663 1.33333 3.33663 1.33333C2.59663 1.33333 2.0033 1.92666 2.0033 2.66666C2.0033 3.40666 2.59663 3.99999 3.33663 3.99999C4.07663 3.99999 4.66997 3.40666 4.66997 2.66666ZM6.79663 2.99999C6.5233 2.99999 6.28997 3.16666 6.1833 3.42C5.88997 4.15333 5.17663 4.66666 4.33663 4.66666H2.33663C1.7833 4.66666 1.33663 5.11333 1.33663 5.66666V7.33333H5.33663V5.82666C6.28997 5.52666 7.05663 4.80666 7.41663 3.88666C7.58997 3.46 7.25663 2.99999 6.79663 2.99999ZM12.67 11.3333C13.41 11.3333 14.0033 10.74 14.0033 10C14.0033 9.25999 13.41 8.66666 12.67 8.66666C11.93 8.66666 11.3366 9.25999 11.3366 10C11.3366 10.74 11.93 11.3333 12.67 11.3333ZM13.67 12H11.67C10.83 12 10.1166 11.4867 9.8233 10.7533C9.7233 10.5 9.4833 10.3333 9.20997 10.3333C8.74997 10.3333 8.41663 10.7933 8.5833 11.22C8.94997 12.14 9.70997 12.86 10.6633 13.16V14.6667H14.6633V13C14.67 12.4467 14.2233 12 13.67 12ZM11.5033 7.39333C11.5033 7.39333 11.5033 7.38666 11.51 7.39333C10.8033 7.57333 10.2433 8.13333 10.0633 8.84V8.83333C9.98997 9.12 9.7233 9.33333 9.40997 9.33333C9.0433 9.33333 8.7433 9.03333 8.7433 8.66666C8.7433 8.63333 8.75663 8.57333 8.75663 8.57333C9.0433 7.33999 10.0166 6.36666 11.2566 6.08666C11.2833 6.08666 11.31 6.08 11.3366 6.08C11.7033 6.08 12.0033 6.37999 12.0033 6.74666C12.0033 7.05333 11.79 7.32 11.5033 7.39333ZM12.0033 4.03999C12.0033 4.37999 11.7566 4.65333 11.43 4.7C9.3033 4.96 7.62997 6.63999 7.36997 8.76666C7.3233 9.08666 7.0433 9.33333 6.70997 9.33333C6.3433 9.33333 6.0433 9.03333 6.0433 8.66666C6.0433 8.65333 6.0433 8.63999 6.0433 8.62666C6.0433 8.61999 6.0433 8.61333 6.0433 8.60666C6.37663 5.85999 8.56996 3.68666 11.3233 3.37333H11.33C11.7033 3.37333 12.0033 3.67333 12.0033 4.03999Z" fill="#3F5F90"/>
</svg>
