<svg width="14" height="14" viewBox="0 0 14 14" fill="none" xmlns="http://www.w3.org/2000/svg">
<path d="M0 10.1775C0 9.97925 0 9.77517 0 9.57692C0.0058309 9.54776 0.0174932 9.51861 0.0233241 9.48362C0.157435 8.36992 0.682218 7.49528 1.59184 6.84222C1.66764 6.78974 1.69679 6.73727 1.69679 6.64397C1.69679 5.17458 1.69679 3.71103 1.69679 2.24164C1.69679 2.18916 1.69679 2.13668 1.69679 2.07254H3.34111C3.34111 1.91511 3.34111 1.76351 3.34111 1.6119C3.36443 0.982165 3.88921 0.457383 4.52478 0.434059C5.22449 0.410736 5.79008 0.95301 5.80175 1.65272C5.80175 1.79266 5.80175 1.9326 5.80175 2.06671H6.62391C6.62391 1.90928 6.62391 1.75767 6.62391 1.6119C6.64723 0.976334 7.17784 0.451552 7.81924 0.434059C8.50729 0.416567 9.07289 0.958841 9.08455 1.65272C9.08455 1.79266 9.08455 1.9326 9.08455 2.06671H9.9067C9.9067 1.90928 9.9067 1.76351 9.9067 1.6119C9.93003 0.976334 10.4606 0.445721 11.102 0.434059C11.7901 0.416567 12.3557 0.958841 12.3673 1.65272C12.3673 1.79266 12.3673 1.9326 12.3673 2.07837H14V11.9209H13.8309C11.5219 11.9209 9.21866 11.9209 6.90962 11.9209C6.79883 11.9209 6.74052 11.9559 6.67638 12.0434C5.9825 12.9705 5.06122 13.4836 3.9067 13.5594C2.23907 13.6644 0.717203 12.6206 0.198253 11.0405C0.104959 10.7606 0.0699721 10.469 0.00583215 10.1775H0ZM13.1778 5.37283H2.52478V6.36409C3.96502 5.96176 5.25948 6.21832 6.31487 7.29703C7.37026 8.36992 7.60933 9.66438 7.1895 11.1046H13.1778V5.37867V5.37283ZM3.69679 7.00549C2.11662 7.00549 0.82799 8.28829 0.822159 9.86846C0.822159 11.4486 2.10496 12.7431 3.68513 12.7489C5.27114 12.7489 6.5656 11.4603 6.5656 9.87429C6.5656 8.29412 5.27697 7.00549 3.69679 7.00549ZM2.52478 4.53318H13.172V2.90636H10.7172V3.71103H9.89504V2.91219H7.4344V3.71686H6.61807V2.91219H4.15743V3.71103H3.33528V2.90636H2.52478V4.53318ZM4.97959 2.07254C4.97959 1.92094 4.97959 1.78683 4.97959 1.64689C4.96793 1.4428 4.8105 1.27954 4.60641 1.25622C4.40816 1.23872 4.20991 1.367 4.17493 1.57108C4.15161 1.73435 4.17493 1.90345 4.17493 2.06671H4.98542L4.97959 2.07254ZM8.26239 2.07254C8.26239 1.92677 8.26239 1.79266 8.26239 1.66438C8.25656 1.44863 8.09329 1.27954 7.88921 1.26205C7.69096 1.24455 7.49271 1.37283 7.45773 1.57692C7.4344 1.74018 7.45773 1.90928 7.45773 2.07254H8.26822H8.26239ZM11.5452 2.07254C11.5452 1.92094 11.5452 1.78683 11.5452 1.65272C11.5335 1.44281 11.3703 1.27371 11.1604 1.26205C10.9621 1.25038 10.7638 1.3845 10.7347 1.58858C10.7114 1.74601 10.7347 1.90928 10.7347 2.07254H11.5452Z" fill="#3F5F90"/>
<path d="M9.88921 6.99383H8.26239V6.18916H9.88921V6.99383Z" fill="#3F5F90"/>
<path d="M12.3557 6.19499V6.99383H10.7289V6.19499H12.3557Z" fill="#3F5F90"/>
<path d="M8.26822 7.82765H9.88921V8.63231H8.26822V7.82765Z" fill="#3F5F90"/>
<path d="M10.7289 7.82765H12.3498V8.63815H10.7289V7.82765Z" fill="#3F5F90"/>
<path d="M9.88921 10.2766H8.26239V9.47195H9.88921V10.2766Z" fill="#3F5F90"/>
<path d="M12.3498 10.2766H10.723V9.47195H12.3498V10.2766Z" fill="#3F5F90"/>
<path d="M4.91545 10.2766H3.29446V7.82765H4.09913V9.45447H4.91545V10.2708V10.2766Z" fill="#3F5F90"/>
</svg>
