<svg width="16" height="16" viewBox="0 0 16 16" fill="none" xmlns="http://www.w3.org/2000/svg">
<path d="M1 9.36667C1.04668 9.13895 1.08168 8.91122 1.15169 8.68934C1.30923 8.15798 1.60678 7.71421 1.99769 7.32299C2.83786 6.48216 3.67804 5.64133 4.5182 4.8005C5.45173 3.86624 6.38525 2.93198 7.31877 1.99773C7.78553 1.5306 8.32813 1.19777 8.98743 1.06931C10.1368 0.847426 11.152 1.14522 11.9455 1.99773C12.844 2.95534 13.0482 4.08813 12.6107 5.33185C12.4531 5.77563 12.1847 6.15517 11.8522 6.488C10.0668 8.2806 8.28145 10.079 6.49026 11.8658C5.39337 12.9577 3.77722 13.1446 2.47029 12.3213C1.64179 11.7957 1.17503 11.025 1.02917 10.0557C1.02333 10.009 1.01167 9.96226 1 9.90971C1 9.7287 1 9.54768 1 9.36083V9.36667ZM4.86244 5.34937C4.84493 5.37857 4.82159 5.42528 4.78659 5.46031C4.35483 5.89241 3.92308 6.3245 3.49133 6.7566C3.08291 7.17117 2.657 7.56823 2.26609 8.00616C1.24505 9.15063 1.54844 11.0308 2.87287 11.8074C3.92308 12.4264 5.17167 12.2629 6.04101 11.3928C6.82867 10.6104 7.61049 9.82212 8.39231 9.03384C8.42149 9.00465 8.44482 8.97545 8.474 8.94626C7.27209 7.74924 6.08185 6.5639 4.86244 5.34937ZM8.95242 8.46161C8.95242 8.46161 8.97576 8.44409 8.98743 8.43242C9.79842 7.62078 10.6094 6.80915 11.4146 5.99167C11.8055 5.59461 12.0389 5.11581 12.1264 4.56109C12.2898 3.49838 11.7121 2.38895 10.7436 1.92766C9.72258 1.44301 8.60818 1.6357 7.80302 2.43566C7.01537 3.2181 6.23355 4.00638 5.44589 4.79466C5.41672 4.82385 5.39337 4.85305 5.37004 4.8764C6.56611 6.06758 7.75052 7.25876 8.94659 8.45577L8.95242 8.46161Z" fill="#3F5F90" stroke="#3F5F90" stroke-width="0.3"/>
<path d="M11.5196 15.0014C11.2454 14.9313 10.9653 14.8963 10.7028 14.7912C9.55338 14.3299 8.84741 13.4891 8.6782 12.257C8.46233 10.6746 9.36668 9.24405 10.8953 8.78276C12.1322 8.40906 13.2408 8.71269 14.1218 9.65862C14.997 10.6046 15.2245 11.7257 14.7753 12.9285C14.3377 14.1022 13.4567 14.7678 12.2198 14.9664C12.1731 14.9722 12.1322 14.9839 12.0856 14.9956H11.5138L11.5196 15.0014ZM10.306 13.8219C11.2104 14.5576 12.704 14.5401 13.6375 13.5591C14.6061 12.5431 14.4719 11.0717 13.8126 10.3126C12.6457 11.4804 11.4788 12.6482 10.306 13.8219ZM13.3283 9.81628C12.3889 9.05136 10.8953 9.1623 10.0201 10.0615C9.08079 11.0308 9.11579 12.4672 9.8101 13.3314C10.9828 12.1636 12.1497 10.9958 13.3283 9.81628Z" fill="#3F5F90" stroke="#3F5F90" stroke-width="0.3"/>
<path d="M7.56965 5.08077C7.38295 5.08077 7.28376 5.02238 7.22542 4.9056C7.17291 4.79465 7.17291 4.68371 7.24292 4.58445C7.26626 4.54941 7.30126 4.51438 7.33044 4.47934C7.67467 4.14068 8.01891 3.80201 8.36314 3.46334C8.42149 3.41079 8.49151 3.35824 8.56736 3.33488C8.70155 3.29401 8.81824 3.34072 8.89992 3.4575C8.9816 3.57428 8.98744 3.6969 8.91159 3.81369C8.88242 3.85456 8.85324 3.89543 8.81824 3.93047C8.474 4.26914 8.1356 4.61364 7.78553 4.94647C7.71551 5.01654 7.61633 5.05741 7.56965 5.08077Z" fill="#3F5F90" stroke="#3F5F90" stroke-width="0.3"/>
</svg>
