<svg width="25" height="24" viewBox="0 0 25 24" fill="none" xmlns="http://www.w3.org/2000/svg">
<path d="M5.27938 10.7701C4.22827 10.7701 3.18746 10.7701 2.13635 10.7701C0.899748 10.7701 0.106262 10.0001 0.106262 8.81005C0.106262 6.77005 0.106262 4.73005 0.106262 2.69005C0.106262 1.51005 0.899748 0.740051 2.12604 0.740051C4.22827 0.740051 6.33049 0.740051 8.43271 0.740051C9.65901 0.740051 10.4525 1.51005 10.4525 2.69005C10.4525 4.74005 10.4525 6.79005 10.4525 8.84005C10.4525 10.01 9.65901 10.7801 8.44302 10.7801C7.39191 10.7801 6.33049 10.7801 5.27938 10.7801V10.7701ZM8.814 5.75005C8.814 4.74005 8.814 3.73005 8.814 2.73005C8.814 2.37005 8.76248 2.32005 8.4018 2.32005C6.32019 2.32005 4.22827 2.32005 2.14666 2.32005C1.79628 2.32005 1.73445 2.37005 1.73445 2.70005C1.73445 4.73005 1.73445 6.76005 1.73445 8.80005C1.73445 9.13005 1.79628 9.18005 2.14666 9.19005C4.22827 9.19005 6.32019 9.19005 8.4018 9.19005C8.76248 9.19005 8.814 9.14005 8.814 8.78005C8.814 7.77005 8.814 6.76005 8.814 5.76005V5.75005Z" fill="#B3B9C4"/>
<path d="M18.3564 0.73003C19.4076 0.73003 20.469 0.73003 21.5201 0.73003C22.7464 0.73003 23.5296 1.50003 23.5399 2.68003C23.5399 4.72003 23.5399 6.76003 23.5399 8.80003C23.5399 10 22.7464 10.76 21.5098 10.76C19.4179 10.76 17.3156 10.76 15.2237 10.76C13.9871 10.76 13.1936 9.99003 13.1936 8.79003C13.1936 6.76003 13.1936 4.72003 13.1936 2.69003C13.1936 1.48003 13.9768 0.720032 15.2443 0.720032C16.2851 0.720032 17.3259 0.720032 18.3564 0.720032V0.73003ZM21.9014 5.75003C21.9014 4.75003 21.9014 3.75003 21.9014 2.75003C21.9014 2.36003 21.8602 2.32003 21.4686 2.32003C19.3973 2.32003 17.3259 2.32003 15.2649 2.32003C14.8837 2.32003 14.8321 2.37003 14.8321 2.73003C14.8321 4.75003 14.8321 6.76003 14.8321 8.78003C14.8321 9.14003 14.8837 9.19003 15.2649 9.19003C17.3362 9.19003 19.4076 9.19003 21.4686 9.19003C21.8602 9.19003 21.9014 9.14003 21.9014 8.76003C21.9014 7.76003 21.9014 6.76003 21.9014 5.76003V5.75003Z" fill="#B3B9C4"/>
<path d="M5.26907 23.4701C4.21796 23.4701 3.17716 23.4701 2.12604 23.4701C0.899748 23.4701 0.106262 22.7001 0.106262 21.5201C0.106262 19.4701 0.106262 17.4201 0.106262 15.3701C0.106262 14.2001 0.899748 13.4301 2.11574 13.4301C4.22827 13.4301 6.3408 13.4301 8.45332 13.4301C9.65901 13.4301 10.4525 14.2001 10.4628 15.3701C10.4628 17.4301 10.4628 19.4901 10.4628 21.5401C10.4628 22.6901 9.65901 23.4601 8.47393 23.4701C7.41252 23.4701 6.3408 23.4701 5.27938 23.4701H5.26907ZM1.74476 18.4201C1.74476 19.4401 1.74476 20.4501 1.74476 21.4701C1.74476 21.8301 1.79628 21.8801 2.15696 21.8801C4.23857 21.8801 6.33049 21.8801 8.4121 21.8801C8.77278 21.8801 8.8243 21.8301 8.8243 21.4701C8.8243 19.4501 8.8243 17.4401 8.8243 15.4201C8.8243 15.0601 8.77278 15.0101 8.4121 15.0101C6.33049 15.0101 4.23857 15.0101 2.15696 15.0101C1.79628 15.0101 1.74476 15.0601 1.74476 15.4201C1.74476 16.4201 1.74476 17.4201 1.74476 18.4201Z" fill="#B3B9C4"/>
<path d="M18.3565 24C17.8515 23.98 17.3981 23.82 17.0374 23.48C15.7493 22.24 14.4612 21 13.1936 19.74C12.4414 19 12.4517 17.89 13.1936 17.15C14.4612 15.9 15.739 14.66 17.0271 13.43C17.7897 12.7 18.9335 12.7 19.6961 13.43C20.9842 14.66 22.2621 15.9 23.5296 17.15C24.2818 17.9 24.2818 19.01 23.5296 19.76C22.2724 21 20.9945 22.23 19.7167 23.46C19.3457 23.82 18.882 23.99 18.3565 24ZM18.3565 14.45C18.2637 14.52 18.1607 14.57 18.0885 14.64C16.8622 15.82 15.6462 17.01 14.4199 18.19C14.2138 18.39 14.2138 18.5 14.4199 18.69C15.6462 19.88 16.8725 21.07 18.0988 22.26C18.3049 22.46 18.4183 22.46 18.6141 22.26C19.8404 21.07 21.0667 19.88 22.293 18.69C22.4888 18.5 22.4888 18.39 22.293 18.2C21.0564 17 19.8301 15.8 18.5935 14.61C18.5316 14.55 18.4492 14.51 18.3461 14.44L18.3565 14.45Z" fill="#B3B9C4"/>
</svg>
