<svg width="14" height="14" viewBox="0 0 14 14" fill="none" xmlns="http://www.w3.org/2000/svg">
<rect width="14" height="14" rx="7" fill="#E2E2E9"/>
<g clip-path="url(#clip0_1_491)">
<path d="M10.9773 3.96264C10.97 3.95043 10.9623 3.93558 10.9542 3.91999C10.9313 3.87582 10.9027 3.82095 10.8553 3.77435C10.7192 3.64074 10.5396 3.60748 10.3622 3.68283C10.1859 3.75762 10.0836 3.91134 10.0814 4.10414C10.0801 4.22009 10.0797 4.33716 10.0799 4.45292C9.47149 3.72418 8.68608 3.25983 7.74298 3.07173C7.64863 3.05294 7.55428 3.04204 7.46313 3.03151C7.42009 3.02663 7.37555 3.02137 7.3327 3.01554C7.32255 3.01423 7.30958 3.01141 7.29605 3.0084C7.28759 3.00652 7.27913 3.00464 7.27049 3.00295C7.26015 3.00088 7.24944 2.99976 7.23891 2.99976H6.77375C6.76774 2.99976 6.76154 3.00013 6.75552 3.0007L6.70628 3.00633C6.67132 3.01047 6.63637 3.01441 6.60122 3.01817C5.78912 3.10461 5.08809 3.39025 4.5173 3.8668C3.87153 4.4065 3.4261 5.02907 3.19343 5.7176C2.96038 6.40707 2.93802 7.17151 3.12671 7.98933C3.34867 8.95127 3.90442 9.73789 4.77873 10.3276C5.44105 10.7744 6.18587 10.9999 6.99703 10.9999C7.11374 10.9999 7.23215 10.9952 7.35168 10.9859C7.57853 10.968 7.75933 10.7829 7.77248 10.5551C7.78545 10.3293 7.62965 10.1265 7.40994 10.0837C7.32969 10.0681 7.25075 10.0713 7.18328 10.0756C6.90813 10.0931 6.6343 10.0729 6.36986 10.0158C5.59704 9.84895 4.97062 9.44117 4.50772 8.80376C3.98035 8.07765 3.80462 7.25889 3.98561 6.37061C4.14161 5.60391 4.55076 4.97645 5.20123 4.50572C5.92143 3.98463 6.73353 3.8093 7.61518 3.98482C8.33312 4.12763 8.93773 4.49858 9.41248 5.08695C9.43917 5.12002 9.46492 5.15441 9.49048 5.19012C9.48446 5.19012 9.47826 5.19012 9.47225 5.19012C9.30272 5.18955 9.12737 5.18918 8.95408 5.19218C8.70092 5.19669 8.50377 5.39927 8.50528 5.65314C8.50678 5.90514 8.70262 6.1049 8.95127 6.10809L9.0396 6.10922C9.33242 6.11298 9.63538 6.11692 9.93459 6.10527C10.3227 6.09005 10.6326 5.9057 10.8307 5.57159C10.8867 5.47725 10.9192 5.37766 10.9508 5.28144C10.964 5.24123 10.9764 5.20327 10.9903 5.16663C10.997 5.14859 11.0006 5.12942 11.0006 5.11025V4.04495C11.0006 4.01601 10.9927 3.98745 10.9779 3.96264H10.9773Z" fill="#8E9099"/>
<path d="M6.45779 7.68628C6.86939 8.09444 7.27497 8.5009 7.58207 8.80946C7.70536 8.9333 7.82865 8.97164 7.93446 8.97164C7.99047 8.97164 8.0414 8.96074 8.08482 8.94627C8.22502 8.8991 8.33084 8.79124 8.37481 8.65049C8.41898 8.50898 8.39342 8.3594 8.30452 8.23989C8.27633 8.20193 8.24457 8.17017 8.21901 8.14461L8.0446 7.96985C7.77847 7.70338 7.50351 7.42771 7.23099 7.15824C7.20881 7.13625 7.20656 7.12836 7.20656 7.10412C7.209 6.50109 7.20881 5.88792 7.20844 5.29523V4.95829C7.20825 4.73336 7.09905 4.56386 6.90867 4.49358C6.76602 4.44077 6.6136 4.45919 6.49049 4.54394C6.36438 4.63075 6.29109 4.7715 6.28939 4.92992C6.28733 5.13043 6.2877 5.33394 6.28808 5.53069C6.28808 5.616 6.28845 5.70132 6.28845 5.78663V6.12413C6.28845 6.23087 6.28845 6.3376 6.28883 6.44453C6.28921 6.71532 6.28977 6.99531 6.28714 7.27024C6.28564 7.43504 6.34127 7.57109 6.4576 7.68628H6.45779Z" fill="#8E9099"/>
<path d="M8.55393 9.67594C8.4515 9.72141 8.34569 9.77459 8.2395 9.83454C8.06095 9.93507 7.97281 10.1437 8.02505 10.3415C8.0773 10.5396 8.24495 10.6775 8.45206 10.6929C8.45601 10.6933 8.45996 10.6933 8.4639 10.6933C8.47593 10.6933 8.48796 10.692 8.49961 10.6892C8.50976 10.6869 8.5201 10.685 8.53043 10.6834C8.56539 10.6772 8.60881 10.6696 8.65354 10.649C8.76292 10.598 8.86986 10.5473 8.97417 10.4859C9.18579 10.3611 9.2589 10.1018 9.14463 9.88246C9.03337 9.66936 8.77382 9.57878 8.55393 9.67612V9.67594Z" fill="#8E9099"/>
<path d="M10.62 7.32285C10.3963 7.24825 10.1548 7.34784 10.0704 7.54948C10.024 7.66035 9.9943 7.77385 9.97043 7.86499C9.96217 7.89656 9.95427 7.92644 9.94713 7.95049C9.94281 7.96534 9.94055 7.98093 9.94055 7.99653C9.94168 8.2568 10.0821 8.45185 10.2982 8.49338C10.3328 8.49996 10.367 8.50334 10.4003 8.50334C10.5938 8.50334 10.7596 8.39454 10.8216 8.21715C10.866 8.09049 10.9008 7.95557 10.9252 7.81613C10.9628 7.60191 10.8342 7.39445 10.6198 7.32285H10.62Z" fill="#8E9099"/>
<path d="M10.1422 8.75345C9.95898 8.60706 9.69323 8.62172 9.53704 8.78671C9.4489 8.87991 9.36451 8.98346 9.28633 9.09451C9.18559 9.23752 9.17901 9.41078 9.26866 9.56976C9.34591 9.70694 9.46995 9.78849 9.64737 9.81931C9.65639 9.82081 9.6656 9.82157 9.67462 9.82157C9.69905 9.82157 9.72348 9.81593 9.74566 9.80484C9.76051 9.79751 9.77874 9.79 9.7981 9.7821C9.85373 9.75936 9.92308 9.73137 9.97946 9.67537C10.0723 9.58347 10.1618 9.47411 10.2452 9.35083C10.3721 9.16329 10.3268 8.90077 10.142 8.75326L10.1422 8.75345Z" fill="#8E9099"/>
</g>
<defs>
<clipPath id="clip0_1_491">
<rect width="8" height="8" fill="white" transform="translate(3 3)"/>
</clipPath>
</defs>
</svg>
