<svg width="25" height="22" viewBox="0 0 25 22" fill="none" xmlns="http://www.w3.org/2000/svg">
<path d="M0.451263 15.1541C0.541099 14.7632 0.561059 14.3724 0.670858 13.992C1.17992 12.0693 2.26793 10.643 3.92489 9.69222C4.06464 9.6077 4.14449 9.62883 4.26427 9.74504C5.07279 10.5374 6.01107 10.9811 7.12902 10.8966C7.6281 10.8543 8.09724 10.6959 8.52645 10.4423C8.67618 10.3578 8.74605 10.3578 8.83589 10.5268C8.91574 10.6747 9.01556 10.8121 9.12536 10.9388C9.2651 11.0973 9.22517 11.1607 9.05548 11.2452C8.04733 11.7206 7.15896 12.3862 6.41033 13.2525C5.31235 14.5308 4.62361 16.0099 4.38405 17.7213C4.3541 17.9326 4.3042 17.996 4.0846 17.9221C2.76702 17.4889 1.59916 16.8022 0.561059 15.8408C0.531114 15.8091 0.49119 15.788 0.451263 15.7563C0.451263 15.5556 0.451263 15.3654 0.451263 15.1647V15.1541Z" fill="#3F5F90"/>
<path d="M12.3095 22C9.55457 21.9683 7.14897 20.9964 5.07278 19.0948C5.00291 19.0314 4.953 18.968 4.953 18.8518C5.10273 15.7775 6.45025 13.5061 9.00557 12.0376C9.14531 11.9531 9.2052 12.0164 9.29504 12.101C10.0037 12.8088 10.8123 13.2948 11.7905 13.4321C12.9184 13.5906 13.9166 13.2419 14.8249 12.5341C15.0146 12.3862 15.1842 12.2277 15.3539 12.0587C15.4338 11.9742 15.4937 11.9742 15.5935 12.027C17.7196 13.2208 19.0372 15.0485 19.5163 17.5418C19.5962 17.9538 19.6261 18.3764 19.6461 18.7989C19.6461 18.9257 19.6161 18.9997 19.5263 19.0842C18.039 20.447 16.3222 21.3556 14.3857 21.757C13.697 21.9049 12.9983 21.9578 12.3095 21.9683V22Z" fill="#3F5F90"/>
<path d="M12.3295 1.11383C14.2859 1.11383 16.0227 2.68796 16.3122 4.71637C16.4719 5.80453 16.2423 6.83987 15.8431 7.83294C15.5336 8.61473 15.1044 9.32256 14.5355 9.91418C14.2061 10.2628 13.8268 10.5692 13.3975 10.7699C12.3594 11.2453 11.4112 11.0552 10.5428 10.3473C9.35495 9.37538 8.68618 8.0548 8.35679 6.52293C8.06732 5.18122 8.26695 3.93459 9.0555 2.8253C9.73426 1.87448 10.6426 1.31456 11.7705 1.15609C11.9502 1.1244 12.1398 1.11383 12.3195 1.11383H12.3295Z" fill="#3F5F90"/>
<path d="M24.1378 15.5134C24.1877 15.6719 24.058 15.7881 23.9182 15.9148C22.9001 16.834 21.7522 17.489 20.4746 17.9116C20.2749 17.9749 20.225 17.9327 20.1951 17.7425C20.0453 16.6015 19.676 15.5556 19.117 14.5731C18.2586 13.0835 17.0608 11.9954 15.5735 11.2558C15.324 11.1291 15.324 11.1291 15.4837 10.9072C15.5735 10.7804 15.6734 10.6642 15.7432 10.5374C15.8231 10.3895 15.893 10.3578 16.0527 10.4529C17.52 11.3087 19.0971 10.96 20.2849 9.79791C20.4346 9.65001 20.5444 9.63944 20.7141 9.73452C22.6106 10.8544 23.7186 12.5447 24.068 14.8056C24.0979 15.0168 24.1079 15.2387 24.1279 15.5239L24.1378 15.5134Z" fill="#3F5F90"/>
<path d="M6.77967 -0.00610352C7.86767 0.036155 8.74606 0.405918 9.44478 1.19827C9.5446 1.31448 9.53462 1.35674 9.41483 1.45182C8.35678 2.31812 7.75787 3.46966 7.58818 4.8642C7.49835 5.60372 7.58819 6.34325 7.78782 7.06164C7.87766 7.38915 7.96749 7.71665 8.10724 8.03359C8.16713 8.17093 8.14716 8.24488 8.0174 8.31883C7.15897 8.8365 6.15082 8.75198 5.32234 8.05472C4.28424 7.19898 3.71528 6.03687 3.41583 4.71629C2.98662 2.76183 3.9249 0.91302 5.70164 0.215754C5.84139 0.162931 5.98113 0.120672 6.12088 0.099543C6.36044 0.0572845 6.60998 0.0255904 6.76968 0.00446112L6.77967 -0.00610352Z" fill="#3F5F90"/>
<path d="M21.2731 3.76551C21.2332 5.04383 20.8139 6.17425 20.0853 7.18846C19.6161 7.84346 19.0472 8.36113 18.2686 8.57242C17.6597 8.74146 17.1007 8.61468 16.5617 8.30831C16.432 8.23435 16.432 8.1604 16.4819 8.03363C16.7015 7.50539 16.8412 6.9666 16.941 6.39611C17.1906 4.89593 16.8911 3.54365 16.0227 2.32872C15.7832 1.99065 15.4937 1.69484 15.1743 1.44129C15.0545 1.35677 15.0645 1.30395 15.1543 1.20887C15.7732 0.522168 16.5218 0.110147 17.4201 0.036194C18.9374 -0.0905816 20.0653 0.585556 20.8439 1.93783C21.1633 2.48719 21.303 3.1105 21.293 3.75495L21.2731 3.76551Z" fill="#3F5F90"/>
</svg>
