<svg width="16" height="16" viewBox="0 0 16 16" fill="none" xmlns="http://www.w3.org/2000/svg">
<path d="M2.66667 11C3.40305 11 4 10.4031 4 9.66667C4 8.93029 3.40305 8.33334 2.66667 8.33334C1.93029 8.33334 1.33333 8.93029 1.33333 9.66667C1.33333 10.4031 1.93029 11 2.66667 11Z" fill="#3F5F90"/>
<path d="M0.813333 12.0533C0.32 12.2667 0 12.7467 0 13.2867V14.3333H3V13.26C3 12.7067 3.15333 12.1867 3.42 11.7333C3.17333 11.6933 2.92667 11.6667 2.66667 11.6667C2.00667 11.6667 1.38 11.8067 0.813333 12.0533Z" fill="#3F5F90"/>
<path d="M13.3333 11C14.0697 11 14.6667 10.4031 14.6667 9.66667C14.6667 8.93029 14.0697 8.33334 13.3333 8.33334C12.597 8.33334 12 8.93029 12 9.66667C12 10.4031 12.597 11 13.3333 11Z" fill="#3F5F90"/>
<path d="M15.1867 12.0533C14.62 11.8067 13.9933 11.6667 13.3333 11.6667C13.0733 11.6667 12.8267 11.6933 12.58 11.7333C12.8467 12.1867 13 12.7067 13 13.26V14.3333H16V13.2867C16 12.7467 15.68 12.2667 15.1867 12.0533Z" fill="#3F5F90"/>
<path d="M10.8267 11.4333C10.0467 11.0867 9.08667 10.8333 8 10.8333C6.91333 10.8333 5.95333 11.0933 5.17333 11.4333C4.45333 11.7533 4 12.4733 4 13.26V14.3333H12V13.26C12 12.4733 11.5467 11.7533 10.8267 11.4333ZM5.38 13C5.44 12.8467 5.56 12.72 5.70667 12.6533C6.44 12.3267 7.21333 12.1667 7.99333 12.1667C8.78 12.1667 9.54667 12.3333 10.28 12.6533C10.4333 12.72 10.5467 12.8467 10.6067 13H5.38Z" fill="#3F5F90"/>
<path d="M6 8.33334C6 9.44 6.89333 10.3333 8 10.3333C9.10667 10.3333 10 9.44 10 8.33334C10 7.22667 9.10667 6.33334 8 6.33334C6.89333 6.33334 6 7.22667 6 8.33334ZM8.66667 8.33334C8.66667 8.7 8.36667 9 8 9C7.63333 9 7.33333 8.7 7.33333 8.33334C7.33333 7.96667 7.63333 7.66667 8 7.66667C8.36667 7.66667 8.66667 7.96667 8.66667 8.33334Z" fill="#3F5F90"/>
<path d="M1.65333 7.57334C1.44667 7.06667 1.33333 6.57334 1.33333 6.06667C1.33333 4.34667 2.68 3.00001 4.4 3.00001C6.18667 3.00001 6.94667 4.16001 8 5.39334C9.04667 4.17334 9.8 3.00001 11.6 3.00001C13.32 3.00001 14.6667 4.34667 14.6667 6.06667C14.6667 6.57334 14.5533 7.06667 14.3467 7.57334C14.78 7.78 15.1333 8.12 15.3667 8.53334C15.7667 7.73334 16 6.92 16 6.06667C16 3.60001 14.0667 1.66667 11.6 1.66667C10.2067 1.66667 8.87333 2.31334 8 3.34001C7.12667 2.31334 5.79333 1.66667 4.4 1.66667C1.93333 1.66667 0 3.60001 0 6.06667C0 6.92 0.233333 7.73334 0.64 8.53334C0.873333 8.12 1.22667 7.78 1.65333 7.57334Z" fill="#3F5F90"/>
</svg>
